<?xml version="1.0" standalone="no"?>
<!DOCTYPE svg PUBLIC "-//W3C//DTD SVG 1.1//EN" "http://www.w3.org/Graphics/SVG/1.1/DTD/svg11.dtd" >
<svg xmlns="http://www.w3.org/2000/svg">
<metadata>
<json>
{
	"fontFamily": "logos-webfont",
	"majorVersion": 1,
	"minorVersion": 0,
	"version": "Version 1.0",
	"fontId": "logos-webfont",
	"psName": "logos-webfont",
	"subFamily": "Regular",
	"fullName": "logos-webfont",
	"description": "Font generated by IcoMoon."
}
</json>
</metadata>
<defs>
<font id="logos-webfont" horiz-adv-x="1024">
<font-face units-per-em="1024" ascent="960" descent="-64" />
<missing-glyph horiz-adv-x="1024" />
<glyph unicode="&#x20;" d="" horiz-adv-x="512" />
<glyph unicode="&#x21;" d="M0 960v-143.36h289.792v-909.75h159.744v909.75h290.23v143.36zM1677.312 960v-449.39h-427.74v449.39h-159.598v-1053.11h159.598v459.922h427.74v-459.922h159.89v1053.11zM2280.594 960v-1053.11h673.354v143.212h-513.902v316.71h438.272v142.19h-438.272v307.638h513.902v143.36z" horiz-adv-x="2924" />
<glyph unicode="&#x22;" d="M314.752 828.032h-314.752v113.536h766.080v-113.664h-316.288v-921.088h-135.040v921.216zM1492.736 391.936h-400.64v-373.12h448.256v-112h-583.424v1034.752h560.256v-112.128h-425.216v-327.040h400.64v-110.464zM2512.384-60.8c-47.616-24.704-147.328-49.28-273.28-49.28-291.712 0-509.696 184.192-509.696 525.056 0 325.504 219.52 543.488 540.416 543.488 127.488 0 210.304-27.648 245.632-46.080l-33.792-109.056c-49.152 24.576-121.344 43.008-207.232 43.008-242.56 0-403.712-155.008-403.712-426.752 0-254.976 145.792-416 396.032-416 82.816 0 165.76 16.768 219.52 43.008l26.112-107.392zM2892.16 941.568v-433.024h500.48v433.024h135.168v-1034.624h-135.168v485.12h-500.48v-485.12h-135.040v1034.624h135.040zM3836.928-93.056v1034.624h147.328l330.112-523.52c75.136-121.344 136.576-230.4 184.192-336.128l4.608 1.536c-12.288 138.24-15.36 264.064-15.36 425.216v432.896h125.824v-1034.624h-135.040l-328.448 524.928c-72.192 115.072-141.312 233.344-192 345.344l-4.608-1.536c7.68-130.56 9.216-254.72 9.216-426.752v-442.112h-125.824zM5808.512 434.944c0-354.56-216.32-545.024-480.512-545.024-274.688 0-465.152 213.504-465.152 526.592 0.128 328.576 202.752 543.488 479.104 543.488 284.032 0 466.56-216.448 466.56-525.056zM5004.16 419.584c0-222.72 119.808-420.736 331.648-420.736s331.52 194.944 331.52 429.952c0 207.232-107.392 422.144-329.984 422.144s-333.184-205.696-333.184-431.36zM6057.984 941.568h135.168v-922.624h442.112v-112h-577.28v1034.624zM7685.504 434.944c0-354.56-216.32-545.024-480.512-545.024-274.688 0-465.152 213.504-465.152 526.592 0.128 328.576 202.752 543.488 479.104 543.488 284.16 0 466.56-216.448 466.56-525.056zM6881.152 419.584c0-222.72 119.808-420.736 331.648-420.736s331.52 194.944 331.52 429.952c0 207.232-107.392 422.144-329.984 422.144s-333.184-205.696-333.184-431.36zM8725.504-47.104c-60.032-23.040-179.712-56.704-319.488-56.704-156.544 0-285.44 39.808-386.688 136.448-88.96 86.016-144.256 224.256-144.256 385.408 0 308.48 213.248 534.272 560.256 534.272 119.808 0 215.040-26.112 259.456-47.616l-33.792-109.056c-55.296 26.112-124.544 44.544-228.736 44.544-251.776 0-416-156.672-416-416 0-262.528 156.544-417.536 398.976-417.536 87.552 0 147.456 12.288 178.304 27.52v308.736h-209.024v107.52h340.992v-497.536zM9235.84-93.056v438.912l-328.448 595.712h153.472l145.792-285.568c38.528-78.208 70.784-141.312 103.040-213.376h2.944c27.776 67.584 64.512 135.168 104.448 213.376l148.736 285.568h150.528l-345.472-594.176v-440.576h-135.040z" horiz-adv-x="9600" />
<glyph unicode="&#x23;" d="M2375.066-116.838c-109.772 0-205.21 40.244-278.016 113.050-104.244 104.244-102.604 221.594-102.604 425.164 0 203.98-1.638 321.228 102.604 425.574 72.806 72.602 168.244 112.844 278.016 112.844 194.764 0 340.788-114.586 377.754-325.632h-163.532c-25.396 107.008-96.768 181.35-214.324 181.35-62.464 0-118.886-23.962-155.852-64-52.122-56.422-64-117.35-64-330.24 0-212.582 11.878-273.612 64-330.036 36.966-40.038 93.388-64 155.852-64 117.452 0 190.464 74.444 215.654 181.35h162.1c-35.636-210.942-185.858-325.424-377.652-325.424zM5882.982 750.182c-37.068 40.244-95.13 65.638-157.798 65.638-62.156 0-120.32-25.396-157.594-65.638-51.712-56.832-62.156-116.020-62.156-328.806 0-212.378 10.548-271.974 62.156-328.602 37.274-39.834 95.436-65.434 157.594-65.434 62.668 0 120.73 25.6 157.798 65.434 52.020 56.628 62.26 116.224 62.26 328.602 0.102 212.788-10.24 271.974-62.26 328.806zM6004.94-3.788c-73.012-73.012-166.502-113.050-279.654-113.050-112.64 0-205.21 40.038-277.708 113.050-104.448 104.038-102.604 221.594-102.604 425.164 0 203.98-1.844 321.228 102.604 425.37 72.396 73.010 165.068 113.254 277.606 113.254 113.152 0 206.746-40.244 279.654-113.152 104.346-104.244 101.068-221.388 101.068-425.37 0.104-203.674 3.278-321.228-100.966-425.266zM7869.030 750.182c-37.068 40.244-95.13 65.638-157.492 65.638-62.566 0-120.628-25.396-157.696-65.638-51.916-56.832-62.668-116.020-62.668-328.806 0-212.378 10.752-271.974 62.668-328.602 37.068-39.834 95.13-65.434 157.696-65.434 62.362 0 120.422 25.6 157.492 65.434 52.020 56.628 62.26 116.224 62.26 328.602 0 212.788-10.24 271.974-62.26 328.806zM7990.988-3.788c-73.114-73.012-166.604-113.050-279.45-113.050-113.152 0-205.516 40.038-278.016 113.050-104.346 104.038-102.604 221.594-102.604 425.164 0 203.98-1.74 321.228 102.604 425.37 72.5 73.010 164.762 113.254 278.018 113.254 112.948 0 206.438-40.244 279.45-113.152 104.244-104.244 100.966-221.388 100.966-425.37 0-203.674 3.276-321.228-100.968-425.266zM9068.646 3.584c-80.588-84.582-180.020-120.422-291.738-120.422-109.772 0-204.902 40.038-277.812 113.050-104.448 104.038-102.912 221.594-102.912 425.164 0 203.98-1.536 321.434 102.912 425.37 72.908 73.012 164.966 113.050 277.812 113.050 224.87 0 355.532-147.252 385.332-328.602h-161.996c-26.932 115.814-104.142 184.422-223.336 184.422-62.26 0-118.988-25.396-155.852-65.434-52.224-56.832-64.102-116.020-64.102-328.806 0-212.378 11.878-273.204 64.102-330.036 36.864-40.038 93.594-64 155.852-64 70.144 0 130.97 27.034 172.748 74.444 38.4 44.442 53.35 98.202 53.35 166.604v59.392h-225.996l0.002 136.808h386.56v-161.996c-0.104-136.806-25.294-224.768-94.926-299.008zM11330.662-116.838c-159.028 0-273.612 36.966-374.58 139.776l106.804 105.574c77.414-77.21 162.406-101.172 270.644-101.172 138.342 0 218.726 59.392 218.726 161.996 0 46.388-13.62 84.992-41.574 110.182-26.828 25.396-53.35 35.636-115.916 44.442l-125.338 17.818c-85.812 12.186-154.624 41.78-200.602 84.992-51.916 49.152-77.108 116.020-77.108 202.24 0 184.628 133.836 310.784 353.792 310.784 139.674 0 237.772-35.636 328.602-120.422l-102.604-101.172c-65.536 62.362-141.414 81.612-230.4 81.612-125.236 0-193.638-71.168-193.638-164.966 0-38.604 12.186-72.602 40.448-98.202 26.726-23.552 69.94-41.37 118.988-48.844l120.32-17.612c98.406-14.95 152.986-39.014 197.836-78.95 58.060-50.586 86.22-126.566 86.22-217.19-0.102-194.662-159.128-310.886-380.62-310.886zM0 950.784v-143.974h291.328v-914.842h160.358v914.842h291.738v143.974zM1031.27 950.784v-1058.816h676.966v144.282h-516.198v318.156h440.116v142.95h-440.116v309.454h516.198v143.974zM3662.438 950.784v-451.788h-429.978v451.788h-160.256v-1058.816h160.256v462.438h429.978v-462.438h160.462v1058.816zM4841.062 950.784v-743.628l-489.164 743.628h-147.046v-1058.816h160.664v745.062l489.064-745.062h147.25v1058.816zM6449.152 950.784v-1058.816h670.516v144.282h-510.158v914.534zM9505.178 950.784h160.46v-1058.816h-160.46zM10047.796 950.784v-1058.816h676.658v144.282h-516.3v318.156h440.114v142.95h-440.114v309.454h516.3v143.974z" horiz-adv-x="11672" />
<glyph unicode="&#x24;" d="M2490.806-111.25c-109.276 0-204.214 40.082-276.626 112.348-103.424 103.716-102.108 220.598-102.108 423.498 0 202.752-1.316 319.488 102.108 423.35 72.412 72.118 167.352 112.054 276.626 112.054 193.974 0 339.090-114.102 375.954-324.022h-162.816c-25.308 106.496-96.256 180.37-213.138 180.37-62.172 0-118.346-23.406-155.502-63.78-51.492-55.882-63.488-116.736-63.488-328.266 0-211.676 11.996-272.238 63.488-328.412 37.156-39.79 93.33-63.78 155.502-63.78 116.882 0 189.586 74.166 214.602 180.37h161.5c-35.694-209.628-185.198-323.73-376.102-323.73zM0 950.784v-143.36h290.23v-909.75h159.598v909.75h290.086v143.36zM1090.268 950.784v-1053.11h673.206v143.36h-513.756v316.708h438.272v142.044h-438.272v307.638h513.756v143.36zM3835.318 950.784v-449.39h-427.738v449.39h-159.598v-1053.11h159.598v460.068h427.738v-460.068h159.744v1053.11z" horiz-adv-x="3948" />
<glyph unicode="&#x25;" d="M398.438 806.4h-237.978v-331.366h237.978c107.11 0 180.020 61.030 180.020 164.966 0 104.244-72.91 166.4-180.020 166.4zM584.396-107.828l-223.232 445.952h-200.704v-445.952h-160.46v1058.612h410.316c200.704 0 328.5-129.434 328.5-309.248 0-151.756-91.956-248.218-211.148-280.986l243.916-468.378h-187.188zM6697.37 750.182c-36.66 40.244-95.028 65.638-157.594 65.638-62.26 0-120.218-25.396-157.492-65.638-51.916-56.832-62.362-116.020-62.362-328.806 0-212.378 10.548-271.974 62.362-328.602 37.274-39.834 95.232-65.434 157.492-65.434 62.566 0 120.934 25.6 157.594 65.434 52.224 56.628 62.464 116.224 62.464 328.602 0.102 212.788-10.24 271.974-62.464 328.806zM6819.636-3.788c-72.908-73.012-166.502-113.050-279.756-113.050-112.742 0-205.004 40.038-277.812 113.050-104.346 104.038-102.708 221.594-102.708 425.164 0 203.98-1.638 321.228 102.708 425.37 72.704 73.010 165.068 113.254 277.708 113.254 113.254 0 206.95-40.244 279.756-113.152 104.14-104.244 100.966-221.388 100.966-425.37 0.104-203.674 3.176-321.228-100.862-425.266zM7662.284 806.4h-238.080v-331.366h238.080c106.804 0 180.020 61.030 180.020 164.966 0 104.244-73.216 166.4-180.020 166.4zM7848.14-107.828l-223.028 445.952h-200.908v-445.952h-160.46v1058.612h410.316c201.114 0 328.704-129.434 328.704-309.248 0-151.756-91.956-248.218-211.252-280.986l244.020-468.378h-187.392zM9836.748 735.028c-44.544 49.356-103.936 71.782-179.916 71.782h-194.868v-770.458h194.868c75.98 0 135.372 22.016 179.916 71.372 54.784 60.826 56.422 175.616 56.422 321.024-0.102 145.818-1.638 245.454-56.422 306.28zM9946.726-8.192c-66.764-66.764-163.43-99.636-273.612-99.636h-371.814v1058.816h371.814c110.182 0 206.848-32.768 273.612-99.84 114.38-114.586 107.008-269.004 107.008-422.4 0-153.19 7.374-322.56-107.008-436.94zM1078.886 950.784v-1058.816h676.66v144.282h-515.994v318.156h440.012v142.95h-440.012v309.454h515.994v143.974zM2411.008 711.578l160.666-470.22h-325.734l165.068 470.22zM2342.604 950.784l-388.096-1058.816h171.008l72.704 212.992h417.996l72.908-212.992h171.008l-388.4 1058.816h-129.128zM3115.316 950.784v-1058.816h670.514v144.282h-510.054v914.534zM4035.174 375.194h434.278v-141.21h-434.278zM5783.86 950.784l-184.526-756.736-212.582 756.736h-129.434l-212.684-756.736-184.422 756.736h-169.37l276.684-1058.816h139.776l213.812 742.196 215.756-742.196h139.878l276.788 1058.816zM8342.938 950.784v-1058.816h670.412v144.282h-510.054v914.534z" horiz-adv-x="10034" />
<glyph unicode="&#x26;" d="M405.606 813.26h-242.176v-337.612h242.278c108.954 0 183.296 62.156 183.296 168.346-0.102 105.778-74.342 169.266-183.398 169.266zM594.944-117.556l-227.226 453.94h-204.288v-454.042h-163.43v1077.658h417.69c204.39 0 334.54-131.788 334.54-314.676 0-154.316-93.594-252.724-214.836-286.106l248.218-476.774h-190.668zM1163.572 960v-1077.76h688.742v146.842h-525.414v323.788h448.102v145.614h-448.102v314.88h525.414v146.636zM2584.372 716.39l163.43-478.412h-331.366l167.936 478.412zM2514.636 960l-394.956-1077.76h173.978l74.342 216.78h425.268l74.24-216.78h174.080l-395.368 1077.76h-131.584zM3366.4 960v-1077.76h682.598v146.842h-519.066v930.918z" horiz-adv-x="3992" />
<glyph unicode="&#x27;" d="M535.844 751.104c-37.010 40.228-94.792 65.39-156.964 65.39s-119.954-25.162-156.964-65.244c-51.494-56.174-62.026-115.272-62.026-326.656 0-211.53 10.532-271.068 62.026-327.094 37.010-40.23 94.792-65.39 156.964-65.39s119.808 25.162 156.818 65.244c51.786 56.174 62.026 115.566 62.026 327.094 0.146 211.53-10.24 270.628-61.88 326.656zM656.97 1.39c-72.412-72.704-165.596-112.64-278.090-112.64s-204.214 39.936-276.918 112.786c-103.424 103.132-101.962 220.16-101.962 423.058 0 202.606-1.462 319.488 102.108 423.058 72.558 72.412 164.278 112.348 276.772 112.348s205.532-39.936 278.090-112.494c103.57-103.57 100.644-220.306 100.644-422.912 0-202.898 2.926-319.926-100.644-423.204zM1795.658 950.784v-739.328l-486.694 739.328h-146.578v-1053.11h159.89v741.082l486.84-741.082h146.286v1053.11z" horiz-adv-x="1900" />
<glyph unicode="&#x28;" d="M0 960v-1077.76h682.804v146.842h-519.168v930.918zM1041.1 960h163.328v-1077.76h-163.328zM1658.266 960v-1077.76h163.328v455.782h448.204v146.638h-448.204v328.704h525.414v146.636zM2715.75 960v-1077.76h689.050v146.842h-525.516v323.788h447.896v145.614h-447.896v314.88h525.516v146.636z" horiz-adv-x="3378" />
<glyph unicode="&#x29;" d="M1535.796 746.496c-37.99 40.858-96.768 66.764-160.46 66.764s-122.676-25.908-160.358-66.764c-53.248-57.344-63.692-117.76-63.692-334.54 0-216.268 10.548-276.788 63.692-334.438 37.684-40.858 96.666-66.662 160.358-66.662s122.47 25.804 160.46 66.662c53.044 57.652 63.59 118.068 63.59 334.438 0 216.78-10.65 277.196-63.59 334.54zM1659.904-20.582c-74.24-74.342-169.574-115.2-284.672-115.2s-208.998 40.858-283.136 115.2c-105.882 105.882-104.448 225.484-104.448 432.64 0 207.564-1.434 327.168 104.448 433.050 74.24 74.136 168.14 114.892 283.238 114.892s210.432-40.756 284.672-114.996c105.78-105.78 102.81-225.382 102.81-433.050-0.102-207.052 2.97-326.654-102.912-432.536zM2582.528 804.25h-242.176v-337.716h242.176c109.158 0 183.398 62.156 183.398 168.346 0 105.78-74.138 169.37-183.398 169.37zM2771.968-126.668l-227.226 454.042h-204.39v-454.042h-163.226v1077.554h417.588c204.596 0 334.54-131.788 334.54-314.676 0-154.316-93.696-252.724-214.938-286.106l248.218-476.774-190.566 0.002zM0 950.886v-1077.76h163.328v455.782h448v146.74h-448v328.602h525.414v146.636z" horiz-adv-x="2866" />
<glyph unicode="&#x2a;" d="M0 927.744c81.408 13.696 178.048 23.040 284.032 23.040 191.872 0 328.448-45.952 419.072-129.024 93.696-84.352 147.328-204.16 147.328-371.456 0-168.832-53.632-307.072-148.864-402.048-98.304-96.768-257.92-149.12-459.008-149.12-96.768 0-174.976 4.608-242.56 12.288v1016.32zM133.504 12.672c33.792-4.48 82.816-6.016 135.040-6.016 287.104 0 440.576 159.488 440.576 438.912 1.536 244.096-136.576 399.232-419.072 399.232-69.12 0-121.216-6.272-156.544-13.824v-818.304zM1633.92 393.472h-400.64v-372.992h448.256v-112h-583.296v1034.624h560.384v-112.128h-425.344v-327.040h400.64v-110.464zM1915.392 71.168c59.776-38.528 145.792-67.712 237.952-67.712 136.576 0 216.448 72.192 216.448 176.768 0 94.976-55.296 151.936-194.944 204.032-168.832 61.312-273.28 150.528-273.28 294.784 0 161.152 133.504 280.96 334.592 280.96 104.32 0 182.656-24.576 227.2-50.688l-36.864-109.056c-32.256 19.968-101.376 49.152-194.944 49.152-141.184 0-194.944-84.352-194.944-155.008 0-96.768 62.976-144.256 205.696-199.68 174.976-67.456 262.528-151.936 262.528-303.872 0-159.744-116.736-299.52-360.832-299.52-99.712 0-208.768 30.72-264.064 67.456l35.456 112.384zM2899.968 943.104v-1034.624h-135.296v1034.624h135.296zM3999.232-45.568c-59.776-23.040-179.456-56.704-319.232-56.704-156.672 0-285.44 39.808-386.816 136.448-88.96 86.016-144.384 224.256-144.384 385.408 0 308.48 213.504 534.272 560.512 534.272 119.68 0 214.784-26.112 259.328-47.616l-33.92-108.928c-55.296 26.112-124.288 44.544-228.736 44.544-251.776 0-416-156.672-416-416 0-262.528 156.672-417.536 399.232-417.536 87.552 0 147.2 12.288 178.048 27.52v308.48h-208.768v107.52h340.736v-497.408zM4279.168-91.52v1034.624h147.456l329.984-523.52c75.264-121.344 136.576-230.4 184.192-336.128l4.48 1.536c-12.288 138.24-15.232 264.064-15.232 425.216v432.896h125.952v-1034.624h-135.040l-328.448 524.928c-72.192 115.072-141.312 233.344-192 345.344l-4.48-1.536c7.68-130.56 9.216-254.72 9.216-426.752v-442.112h-126.080z" horiz-adv-x="4992" />
<glyph unicode="&#x2b;" d="M413.286 359.424h-252.62v-322.764h252.62c111.616 0 173.978 68.608 173.978 161.996 0 93.594-62.362 160.768-173.978 160.768zM398.54 806.604h-237.874v-303.206h237.876c102.604 0 172.544 53.35 172.544 151.962-0.002 97.792-69.94 151.244-172.546 151.244zM428.236-107.622h-428.236v1058.61h411.852c196.198 0 319.59-111.616 319.59-290.202 0-114.176-71.476-195.994-142.644-224.154 81.718-32.664 159.234-111.41 159.234-245.452 0-194.764-132.3-298.802-319.796-298.802zM1453.568-116.634c-215.45 0-378.982 147.252-378.982 365.568v702.26h160.564v-694.374c0-141.414 86.324-229.172 218.42-229.172 132.506 0 220.058 87.756 220.058 229.172l-0.002 694.374h160.666v-702.156c0.102-218.42-164.864-365.672-380.724-365.672zM2480.742-116.634c-159.028 0-273.612 36.966-374.58 139.776l107.008 105.574c77.312-77.21 162.202-101.172 270.54-101.172 138.444 0 218.932 59.392 218.932 161.996 0 46.388-13.414 84.992-41.78 110.182-26.828 25.396-53.35 35.636-116.020 44.442l-125.232 17.82c-86.016 12.186-154.42 41.78-200.704 84.992-52.020 49.152-77.108 116.020-77.108 202.24 0 184.628 133.734 310.784 353.792 310.784 139.878 0 237.978-35.636 328.602-120.422l-102.4-101.172c-65.536 62.362-141.516 81.612-230.708 81.612-124.928 0-193.332-71.168-193.332-164.966 0-38.604 12.084-72.602 40.244-98.202 26.726-23.552 69.836-41.37 119.092-48.844l120.32-17.612c98.1-14.95 153.088-39.014 197.94-78.95 57.856-50.586 86.118-126.566 86.118-217.19 0-194.664-158.926-310.888-380.724-310.888zM6186.188-116.634c-159.028 0-273.716 36.966-374.682 139.776l107.214 105.678c77.21-77.21 162.1-101.172 270.336-101.172 138.548 0 218.828 59.392 218.828 161.996 0 46.388-13.312 84.992-41.78 110.182-26.624 25.396-53.35 35.636-115.814 44.442l-125.234 17.716c-86.118 12.186-154.624 41.78-200.806 84.992-51.814 49.152-76.902 116.020-76.902 202.24 0.102 184.628 133.528 310.784 353.688 310.784 139.98 0 237.978-35.636 328.704-120.422l-102.4-101.172c-65.638 62.362-141.516 81.612-230.708 81.612-124.826 0-193.332-71.168-193.332-164.966 0-38.604 11.98-72.602 40.244-98.202 26.624-23.552 69.734-41.37 119.092-48.844l120.218-17.612c98.406-14.95 153.292-39.014 198.042-78.95 57.856-50.586 86.118-126.566 86.118-217.19-0.102-194.664-159.232-310.888-380.826-310.888zM7159.604-116.634c-159.13 0-273.818 36.966-374.58 139.776l107.212 105.574c77.108-77.21 161.792-101.172 270.438-101.172 138.444 0 218.726 59.392 218.726 161.996 0 46.388-13.516 84.992-41.676 110.182-26.932 25.396-53.452 35.636-116.224 44.442l-124.928 17.82c-86.324 12.186-154.726 41.78-200.806 84.992-51.916 49.152-77.21 116.020-77.21 202.24 0 184.628 133.632 310.784 353.896 310.784 139.776 0 237.772-35.636 328.5-120.422l-102.196-101.172c-65.638 62.362-141.62 81.612-230.81 81.612-124.724 0-193.126-71.168-193.126-164.966 0-38.604 11.878-72.602 40.038-98.202 26.624-23.552 69.734-41.37 118.886-48.844l120.628-17.612c98.1-14.95 153.088-39.014 197.734-78.95 57.958-50.586 86.324-126.566 86.324-217.19-0.002-194.664-159.13-310.888-380.826-310.888zM3182.388 950.988h160.46v-1058.816h-160.46zM4361.216 950.988v-743.628l-489.268 743.628h-147.25v-1058.816h160.666v745.064l489.062-745.064h147.148v1058.816zM4903.424 950.988v-1058.816h676.66v144.18h-516.2v318.26h440.218v142.95h-440.218v309.452h516.2v143.974z" horiz-adv-x="7474" />
<glyph unicode="&#x2c;" d="M1579.594-111.25c-214.602 0-377.27 146.578-377.27 364.106l-0.002 698.366h159.89v-691.2c0-140.434 85.578-227.914 217.38-227.914 131.658 0 218.99 87.478 218.99 227.914v691.2h159.89v-698.368c0.002-217.526-164.132-364.104-378.878-364.104zM5069.97 751.104c-36.718 40.082-94.5 65.244-156.672 65.244-62.026 0-119.808-25.162-156.818-65.244-51.932-56.028-62.172-115.126-62.172-326.51 0-211.53 10.24-271.068 62.026-327.094 37.010-40.082 94.794-65.244 156.818-65.244 62.318 0 119.954 25.162 156.672 65.244 51.786 56.174 62.172 115.566 62.172 327.094 0.146 211.384-10.24 270.482-62.026 326.51zM5191.534 1.39c-72.558-72.704-165.742-112.786-278.236-112.786-112.348 0-204.214 39.936-276.772 112.786-103.57 103.278-102.108 220.306-102.108 423.204 0 202.606-1.61 319.488 102.108 423.058 72.558 72.412 164.424 112.348 276.626 112.348 112.64 0 205.678-39.936 278.236-112.494 103.424-103.57 100.644-220.452 100.644-423.058 0-202.752 2.926-319.78-100.498-423.058zM6093.386 807.424h-236.69v-330.020h236.69c106.642 0 179.2 60.708 179.2 164.426-0.148 103.568-72.704 165.594-179.2 165.594zM6278.436-102.326l-222.062 443.538h-199.826v-443.538h-159.89v1053.11h408.576c199.826 0 326.948-128.438 326.948-307.346 0-151.26-91.722-247.37-210.212-279.698l242.688-466.212-186.222-0.002zM454.364 713.070l159.598-467.53h-324.17l164.572 467.53zM386.048 950.784l-386.048-1053.11h169.984l72.85 211.968h415.452l72.558-211.822h170.276l-386.486 1052.964h-128.586zM2292.298 950.784v-143.36h289.938v-909.75h159.89v909.75h289.938v143.36zM3969.756 950.784v-449.39h-427.74v449.39h-159.598v-1053.11h159.598v460.068h427.74v-460.068h159.744v1053.11zM6834.322 950.784h159.744v-1053.11h-159.744zM7344.714 950.784v-143.36h289.644v-909.75h159.744v909.75h290.232v143.36zM8919.772 950.784l-220.306-462.848-220.6 462.848h-174.518l315.098-619.812v-433.298h159.744v433.298l315.1 619.812z" horiz-adv-x="9068" />
<glyph unicode="&#x2d;" d="M245.632 243.2l-107.392-325.504h-138.24l353.024 1034.624h159.744l353.024-1034.624h-142.72l-110.592 325.504h-366.848zM586.496 347.52l-102.912 297.728c-23.040 67.584-38.4 129.024-53.632 188.928h-3.2c-15.36-59.904-30.72-124.416-52.224-187.264l-101.248-299.392h313.216zM1095.168-82.304v1034.624h147.328l330.112-523.52c75.136-121.344 136.576-230.4 184.192-336.128l4.608 1.536c-12.288 138.24-15.36 264.064-15.36 425.216v432.896h125.824v-1034.624h-135.040l-328.576 524.928c-72.064 115.072-141.184 233.344-191.872 345.344l-4.608-1.408c7.68-130.56 9.216-254.72 9.216-426.752v-442.112h-125.824zM2182.656 936.96c81.408 13.824 177.92 23.040 284.032 23.040 191.872 0 328.448-45.952 418.944-129.024 93.696-84.352 147.456-204.16 147.456-371.456 0-168.832-53.76-307.072-148.992-402.048-98.304-96.768-257.92-148.992-459.008-148.992-96.768 0-174.976 4.48-242.56 12.288v1016.192zM2316.16 21.888c33.792-4.48 82.944-6.016 135.168-6.016 287.104 0 440.576 159.488 440.576 438.912 1.536 244.096-136.576 399.232-419.072 399.232-69.12 0-121.216-6.272-156.672-13.824v-818.304z" horiz-adv-x="2944" />
<glyph unicode="&#x2e;" d="M3890.746 438.48c0-123.362-99.91-223.294-223.226-223.294-123.204 0-223.162 99.932-223.162 223.294 0 123.25 99.956 223.118 223.162 223.118 123.316 0 223.226-99.868 223.226-223.118z" horiz-adv-x="4172" />
<glyph unicode="&#x47;" d="M613.040 43.17c-75.484-78.146-165.5-107.172-266.096-107.172-103.304 0-188.050 36.978-254.194 103.228-95.34 95.326-92.742 213.13-92.742 376.008s-2.596 280.668 92.742 375.936c66.144 66.286 148.286 103.348 254.194 103.348 218.44 0 329.6-142.99 354.882-301.87h-185.368c-21.274 88.648-75.504 137.718-169.516 137.718-50.306 0-91.37-19.94-117.856-50.358-35.662-39.736-45.002-83.364-45.002-264.776 0-181.45 9.338-226.418 45.002-266.13 26.486-30.456 67.552-48.976 117.856-48.976 55.642 0 100.598 19.874 131.048 52.934 30.438 34.464 42.306 76.818 42.306 125.782v35.806h-173.352v153.546h356.19v-137.77c0-136.286-23.818-218.39-90.094-287.254zM1189.148-64.002c-193.378 0-346.93 131.028-346.93 330.974v619.58h183.95v-612.928c0-108.628 63.614-173.522 162.98-173.522 99.198 0 164.030 64.894 164.030 173.522v612.928h182.83v-619.58c0-199.946-153.664-330.974-346.86-330.974zM2539.67 664.17c-31.706 38.382-74.11 58.218-137.6 58.218h-139.084v-614.348h139.084c63.49 0 105.894 19.862 137.6 58.284 34.504 42.328 39.762 109.812 39.762 252.866 0.002 142.936-5.258 202.562-39.762 244.98zM2668.108 33.902c-62.228-62.214-150.876-90.028-248.896-90.028h-340.382l-0.002 942.678h340.382c98.022 0 186.67-27.84 248.896-90.022 105.986-105.914 95.274-235.654 95.274-377.34 0.002-141.65 10.714-279.34-95.272-385.288zM3539.448 886.552v-164.216h-436.932v-221.070h372.062v-164.138h-372.062v-229.088h436.932v-164.166h-620.908v942.678zM1799.266 960l196.106-256.694h-104.19v-505.874h104.19l-196.106-256.732-196.242 256.732h104.184v505.874h-104.184z" horiz-adv-x="3538" />
<glyph unicode="&#x48;" d="M3087.164 710.52c-32.896 39.782-76.848 60.342-142.716 60.342h-144.084v-636.618h144.084c65.868 0 109.82 20.624 142.716 60.384 35.644 43.964 41.118 113.852 41.118 262.032 0 148.134-5.474 209.94-41.118 253.86zM3220.172 57.438c-64.392-64.458-156.38-93.292-257.882-93.292h-352.586v976.822h352.584c101.502 0 193.49-28.812 257.882-93.248 109.734-109.746 98.82-244.22 98.82-391.064 0.002-146.78 10.916-289.484-98.818-399.218zM5837.96 770.862h-179.708v-257.914h179.708c83.744 0 138.634 53.488 138.634 128.958-0.002 75.468-54.892 128.956-138.634 128.956zM5986.16-35.856l-190.636 389.674h-137.276v-389.674h-190.698v976.824h382.778c198.952 0 316.898-135.8 316.898-299.066 0-137.232-83.616-222.292-178.244-256.6l218.068-421.158-220.89 0.002zM2268.066 385.304l218.038-421.16h-220.794l-190.69 389.63h-85.704v159.172h128.158c83.648 0 138.56 53.466 138.56 128.956 0 32.24-10.56 60.018-28.544 81.784v204.9c139.29-36.732 219.37-152.338 219.37-286.684 0-137.232-83.722-222.29-178.394-256.598zM2157.74 906.79l-1.154-110.77c-0.388-22.422-17.94-39.318-41.356-39.964l-25.516 1.486c-17.316-0.69-36.29 10.84-38.058 23.102 3.146 15.214-17.812 30.914-51.44 30.516-49.846 1.984-82.936-27.994-82.408-53.444-1.154-8.966-0.798-42.648-0.798-42.648l-149.408 1.788 0.582 24.438c0 0 0 6.142-0.744 19.374 0.83 46.722-49.91 49.706-49.91 49.706-131.198 1.552-224.436-90.286-224.436-90.286l-23.964 22.95c142.61 231.14 293.926 216.992 344.71 216.054 46.722-0.85 95.694-1.788 107.838-1.94 26.41-0.658 49.846-51.862 90.468-54.694 18.264-0.398 34.706 7.522 44.114 16.378 1.4 19.342 20.958 32.078 38.1 30.914l23.414-1.454c22.37-0.452 39.222-18.082 39.966-41.506zM1769.068 652.852l148.342-4.762 21.54-658.558c0.366-29.524-25.57-54.522-56.086-53.962l-80.2 2.522c-29.534-0.216-54.404 25.516-53.876 56.052l20.28 658.708zM712.012 940.968v-976.824h-190.644v408.918h-330.636v-408.918h-190.732v976.824h190.732v-399.23h330.636v399.23zM1233.456 652.852l119.356-355.322h-242.84l123.484 355.322zM1153.924 940.968l-355.278-976.738h198.834l58.972 172.814h347.156l57.648-172.814h198.932l-356.704 976.738h-149.56zM4361.716 940.968l-152.252-615.942-178.288 615.942h-142.662l-178.416-615.942-151.046 615.942h-198.834l260.682-976.824h159.106l179.688 592.636 179.772-592.636h159.15l262.076 976.824zM4954.46 652.852l119.346-355.322h-242.852l123.506 355.322zM4874.83 940.968l-355.344-976.738h198.976l58.94 172.814h347.154l57.562-172.814h198.91l-356.704 976.738h-149.494zM6974.094 940.968v-170.15h-452.796v-229.080h385.516v-170.076h-385.516v-237.42h452.796v-170.098h-643.474v976.824z" horiz-adv-x="6972" />
<glyph unicode="&#x49;" d="M3667.92 119.46c-177.988 0-322.784 144.708-322.784 322.804 0 177.966 144.796 322.826 322.784 322.826 178.052 0 322.848-144.862 322.848-322.826 0-178.094-144.796-322.804-322.848-322.804zM3667.92 949.148c-279.444 0-506.852-227.386-506.852-506.882 0-279.488 227.406-506.916 506.852-506.916 279.616 0 506.914 227.428 506.914 506.916 0 279.498-227.298 506.882-506.914 506.882zM1866.594 781.504h-186.372v-279.54h186.372c90.324 0 147.674 55.932 147.674 139.148 0 83.086-57.35 140.392-147.674 140.392zM1876.644 322.786h-196.422v-384.124h-199.234v1020.602h395.658c210.746 0 336.89-144.762 336.89-318.152-0.002-173.51-126.146-318.326-336.892-318.326zM2732.502 781.504h-187.766v-269.416h187.766c87.5 0 144.838 55.846 144.838 134.734 0 78.846-57.338 134.682-144.838 134.682zM2887.424-61.338l-199.344 407.080h-143.346v-407.080h-199.234v1020.602h399.94c207.804 0 331.18-141.864 331.18-312.44 0-143.432-87.458-232.318-186.426-268.106l227.97-440.056h-230.74zM0 959.35h199.224v-1020.69h-199.224zM1057.948 959.264v-177.76h-266.602v-842.842h-199.3v842.842h-266.602v177.76z" horiz-adv-x="4172" />
<glyph unicode="&#x53;" d="M665.194 565.76h-480.636c-13.584 0-27.116 8.704-40.698 26.592-15.956 21.17-23.934 47.16-23.934 78.214 0 31.976 7.802 57.876 23.43 77.644 12.85 16.93 26.61 25.422 41.202 25.422h631.396v180.224h-631.396c-49.030 0-91.244-24.802-126.69-74.664-38.578-53.626-57.868-123.194-57.868-208.808 0-81.398 18.906-149.812 57.156-205.318 36.458-53.184 78.864-79.712 126.992-79.712l-0.002-0.842h470.622c14.594-2.048 27.57-10.99 39.032-27.452 13.886-19.744 20.78-44.872 20.78-75.422v-56.454c0-30.6-6.892-55.624-20.78-75.418-11.462-16.462-24.438-25.35-39.032-27.398h-623.198v-181.248h631.528c49.030 0 91.252 24.884 126.7 74.268 38.578 54.080 57.9 124.158 57.9 209.798v56.454c0 85.134-18.968 154.986-56.864 209.092-35.094 49.396-76.988 74.004-125.64 75.028zM3077.97 960h-173.056v-1019.904h633.856v181.248h-460.8zM948.050 776.704h338.944v-840.704h173.056v840.704h322.56v180.224h-834.56zM2622.29 568.832h-505.82c-14.594 2.048-27.79 11.77-39.606 28.244-13.912 19.756-20.846 44.706-20.846 74.814v286.062h-134.144v-286.062c0-85.626 19.27-155.4 58.202-209.026 35.802-49.386 78.35-74.256 128.062-74.256h514.152v-158.474c0-30.574-7.176-55.566-21.44-75.308-11.462-16.462-24.774-26.314-39.696-27.338h-631.088v-181.248h639.42c49.714 0 92.352 24.798 128.152 74.234 38.906 53.624 58.796 123.112 58.796 208.246l0.002 729.232h-134.144v-389.12zM3955.538 518.656h251.904v-119.808h-251.904zM4312.914 958.976h-622.592v-1017.856h622.592v180.224h-448.512v657.408h448.512z" horiz-adv-x="4312" />
<glyph unicode="&#x72;" d="M247.342 790.184l-177.441-56.738v-94.958h-48.393v-123.671h48.393v-165.966c0-30.789 5.35-58.706 7.936-83.698 2.543-24.965 10.211-46.14 19.841-63.475 9.582-17.282 25.277-30.751 45.446-40.381 20.191-9.555 48.651-14.389 84.553-14.389 5.748 0 13.819 0.5 23.756 1.403 9.937 1 20.75 2.108 32.3 3.431 11.534 1.274 19.986 2.995 30.859 5.264 10.921 2.231 18.776 4.958 24.153 8.157v123.085c-10.754-3.866-16.862-7.512-29.396-11.039-12.453-3.576-20.519-5.296-26.933-5.296-14.093 0-22.218 4.925-25.74 14.873-3.511 9.931-4.931 21.341-4.931 34.155 0 5.13-2.559 9.931-2.242 14.453 0.355 4.458-2.167 8.947-2.167 13.469v165.956h91.409v123.671h-91.404v151.696zM1769.031 638.488h62.674c-0.887-10.754-5.264-20.556-13.104-30.095-7.877-9.533-22.056-17.249-42.57-26.901l25.148-46.672c33.407 14.647 54.356 31.977 68.121 51.049 13.749 19.094 18.024 45.624 18.024 78.644v86.892h-118.294v-112.917zM823.739 587.772c-24.030 22.089-52.415 39.101-85.069 50.942-32.708 11.872-67.954 17.792-105.787 17.792-32.671 0-64.906-5.458-96.662-16.357-31.73-10.905-59.932-26.89-84.58-48.049-24.686-21.153-44.57-47.264-59.625-78.402-15.066-31.090-22.626-66.836-22.626-107.223 0-42.274 7.372-79.483 22.137-111.54 14.722-32.025 34.606-58.641 59.593-79.757 25.008-21.169 53.7-37.053 86.086-47.619 32.359-10.555 65.836-15.819 100.475-15.819 36.553 0 70.67 5.425 102.394 16.287 31.746 10.91 59.464 26.923 83.177 48.113 23.713 21.153 42.467 46.947 56.286 77.364 13.744 30.45 20.648 65.535 20.648 105.319 0 40.381-6.732 76.396-20.201 108.153-13.464 31.751-32.176 58.647-56.243 80.795zM698.746 352.185c-2.882-15.712-7.227-29.326-12.985-40.881-5.791-11.539-12.663-20.502-20.685-26.928-8.028-6.388-17.153-9.619-27.407-9.619-20.551 0-37.467 11.856-50.926 35.628-13.512 23.691-20.234 55.41-20.234 95.194 0 17.266 1.753 33.622 5.323 49.017 3.484 15.362 8.146 28.821 13.926 40.349 5.743 11.566 12.636 20.535 20.648 26.96 8.022 6.415 16.819 9.587 26.466 9.587 11.539 0 21.626-3.361 30.278-10.087 8.641-6.737 15.894-15.862 21.642-27.364 5.77-11.561 10.232-25.207 13.437-40.876 3.205-15.776 4.818-32.601 4.818-50.522 0.005-17.932-1.425-34.752-4.302-50.458zM1715.261 426.678c0 29.509 1.425 58.018-2.753 85.623-4.146 27.546-10.888 52.039-23.718 73.536-12.819 21.438-30.063 38.795-53.42 51.909-23.428 13.147-54.216 19.696-93.345 19.696-33.337 0-61.298-7.356-84.37-22.089-23.078-14.776-41.914-30.445-56.636-47.081-3.871 5.726-8.926 12.62-15.314 20.621-6.42 8.039-15.056 15.523-25.949 22.621-10.921 7.055-24.508 13.158-40.844 18.266-16.346 5.146-36.73 7.662-61.067 7.662-15.362 0-29.477-2.683-42.269-8.13-12.83-5.49-24.385-12.066-34.633-19.734-10.243-7.694-19.094-15.572-26.439-23.546-7.404-8.012-13.007-17.024-16.835-21.508l-21.164 53.958h-186.286v-129.048h37.639v-225.834h-37.639v-123.671h284.981v123.671h-59.147v177.694c0 19.884 6.667 34.467 13.399 43.753 6.737 9.313 19.454 13.991 34.838 13.991 19.196 0 29.461-8.533 33.348-25.525 3.828-16.975 4.447-45.022 4.447-84.107v-249.471h247.342v129.048h-59.147v159.815c0 20.535 7.065 37.365 13.797 50.506 6.721 13.093 22.185 19.734 42.704 19.734 8.307 0 15.835-2.274 20.626-6.732 4.829-4.479 8.947-10.286 11.55-17.357 2.549-7.006 4.549-15.201 5.501-24.487s1.57-18.755 1.57-28.385c0-7.668-1.877-15.050-2.183-22.089-0.323-7.076-2.162-13.781-2.162-20.201v-239.846h241.965v129.048h-48.393v137.689zM2313.371 416.144c-20.185 12.157-42.188 21.938-65.89 29.256-23.707 7.453-45.656 14.147-65.852 20.255-20.174 6.071-37.015 12.346-50.474 18.728s-20.196 15.082-20.196 25.955c0 12.152 3.683 21.003 11.028 26.46 7.383 5.42 16.217 8.157 26.455 8.157 12.19 0 24.024-1.898 35.585-5.726 11.528-3.893 21.927-9.168 31.256-15.894 9.275-6.727 16.819-17.19 22.61-25.82 5.764-8.63 8.646-20.336 8.646-31.090h119.337v172.064h-112.621l-7.689-60.228c-10.265 20.502-28.53 39.801-54.802 54.539-26.304 14.701-55.77 22.901-88.484 22.901-17.309 0-35.714-2.339-55.275-7.764-19.556-5.415-37.843-13.561-54.835-24.815-16.959-11.216-31.084-25.514-42.274-43.15-11.243-17.631-16.841-38.58-16.841-62.948 0-31.412 6.598-57.184 19.723-77.38 13.104-20.185 29.821-36.542 50.011-48.995 20.174-12.523 41.833-22.298 64.916-29.348 23.040-7.033 44.677-13.141 64.852-18.244 20.239-5.151 36.875-10.415 50.022-15.868 13.136-5.49 19.717-12.679 19.717-21.626 0-13.453-4.651-22.304-13.943-26.444-9.291-4.183-18.717-6.275-28.348-6.275-7.087 0-16.357 0.968-27.896 2.898-11.528 1.909-22.788 5.307-33.649 10.103-10.921 4.829-20.357 8.721-28.374 17.077-8.028 8.286-12.001 18.325-12.001 29.079h-133.124v-172.064h124.451l8.662 60.771c11.528-18.567 30.278-33.87 56.254-47.952 25.939-14.082 56.233-20.61 90.855-20.61 23.089 0 45.522 3.468 67.304 9.888 21.793 6.361 40.887 15.97 57.249 28.493 16.287 12.485 29.455 27.729 39.392 45.71 9.947 17.975 14.894 38.171 14.894 60.604 0 29.514-6.737 53.738-20.185 72.611-13.453 18.927-30.272 34.488-50.468 46.694z" horiz-adv-x="2382" data-tags="tgu_toms" />
<glyph unicode="&#x73;" d="M349.344 638.775c-9.571 9.625-23.691 20.185-42.274 28.541-18.594 8.318-38.467 13.308-59.642 13.308-39.736 0-74.697-5.517-104.749-17.352-30.176-11.878-55.351-28.337-75.536-49.807-20.191-21.503-35.418-47.387-45.651-77.832-10.249-30.412-15.373-64.169-15.373-101.346 0-30.154 4.302-59.599 12.98-88.425 8.668-28.885 22.105-54.496 40.392-76.929 18.266-22.433 41.978-40.548 71.132-54.324 29.181-13.776 64.605-20.658 106.249-20.658 15.384 0 29.364 1.903 41.833 5.721 12.518 3.85 23.411 8.523 32.703 14.002 9.281 5.458 13.932 11.184 20.336 17.287 6.377 6.081 11.168 11.378 11.168 15.868v-32.687c0-10.249 1.457-20.696-2.049-31.278-3.538-10.566-8.012-20.201-16.647-28.831-8.662-8.625-19.239-15.889-33.332-21.626-14.12-5.796-31.697-8.662-53.437-8.662-18.615 0-36.537 2.242-54.136 6.732-17.642 4.522-33.698 10.103-48.441 16.835-14.776 6.721-27.697 13.453-38.876 20.185-11.238 6.77-19.707 12.674-25.503 17.792l-50.931-106.674c8.963-8.356 20.519-17.405 34.633-26.998 14.104-9.555 30.611-18.733 49.506-27.423 18.879-8.592 39.736-15.819 62.524-21.632 22.729-5.721 47.248-8.592 73.547-8.592 50.63 0 94.694 6.388 132.215 19.169 37.478 12.819 68.729 30.816 93.721 53.888 25.046 23.067 41.989 50.796 54.141 83.177 12.211 32.348 16.642 68.395 16.642 108.142v283.325h53.77v123.671h-221.64l-19.277-26.568zM327.729 347.783c-13.77-19.873-29.654-29.821-47.581-29.821-10.894 0-20.556 3.522-28.826 10.587-8.35 7.017-15.577 16.045-21.626 26.896-6.13 10.942-10.77 23.401-14.002 37.542-3.21 14.082-4.802 28.52-4.802 43.274 0 36.521 6.248 65.664 18.798 87.473 12.453 21.777 28.982 32.719 49.474 32.719 10.227 0 19.723-3.21 28.369-9.625 8.684-6.42 16.040-15.394 22.137-26.928 6.076-11.528 10.738-24.982 13.921-40.376 3.242-15.362 4.818-32.101 4.818-50.022 0-34.612-6.872-61.841-20.68-81.72zM1149.457 665.343h-247.342v-123.671h64.524v-149.679c0-21.777-3.479-39.381-15.314-52.834-11.91-13.507-24.944-20.196-41.607-20.196-19.873 0-35.531 9.748-42.892 29.288-7.404 19.567-13.109 50.162-13.109 91.855v225.237h-231.211v-123.671h37.639v-129.483c0-39.736 6.469-74.348 12.878-103.846 6.393-29.482 18.798-53.818 33.87-73.084 15.045-19.212 35.752-33.655 60.443-43.242 24.643-9.587 55.706-14.421 92.242-14.421 20.502 0 38.316 2.699 53.066 8.189 14.744 5.42 27.53 11.996 38.085 19.701 10.571 7.694 19.615 15.851 26.976 24.514 7.356 8.673 13.647 13.738 18.76 19.497l26.014-62.706h175.371v129.048h-48.393v349.505zM1504.339 310.461h-43.016v354.882h-225.834v-123.671h43.016v-231.211h-43.016v-123.671h268.85zM2079.677 907.308h-241.965v-123.671h48.393v-138.721c-10.754 5.759-21.089 13.303-39.962 22.589-18.986 9.286-44.446 13.926-78.445 13.926-29.471 0-57.233-5.759-84.134-17.325-26.923-11.528-50.452-27.826-70.933-48.979-20.508-21.223-36.752-46.957-48.925-77.434-12.217-30.471-18.228-64.277-18.228-101.432 0-33.327 5.312-65.384 15.884-96.173 10.603-30.756 25.541-57.91 44.731-81.241 19.266-23.428 42.629-42.005 70.202-55.781 27.53-13.754 58.34-20.642 92.312-20.642 16.636 0 31.724 1.764 45.194 5.259 13.502 3.522 25.363 7.732 35.59 12.453 10.254 4.845 18.75 9.679 25.465 14.469 6.737 4.823 11.711 6.657 14.9 9.894l16.368-37.714h221.946v123.671h-48.393v596.852zM1869.114 347.783c-13.792-19.873-29.665-29.821-47.619-29.821-10.91 0-20.486 3.522-28.821 10.587-8.356 7.017-15.561 16.045-21.648 26.896-6.098 10.942-10.759 23.401-13.953 37.542-3.199 14.082-4.775 28.52-4.775 43.274 0 36.521 6.189 65.664 18.723 87.473 12.496 21.777 29.009 32.719 49.522 32.719 10.238 0 19.685-3.21 28.342-9.625 8.711-6.42 16.050-15.394 22.132-26.928 6.081-11.528 10.738-24.982 13.953-40.376 3.199-15.362 4.802-32.101 4.802-50.022-0.005-34.612-6.883-61.841-20.658-81.72zM2533.033 325.189c-12.83-6.103-24.998-10.754-36.537-13.959-11.539-3.221-22.277-5.114-32.219-5.726-9.931-0.656-19.099-1-27.374-1-20.529 0-36.897 2.898-49.070 8.657-12.163 5.796-21.777 12.83-28.821 21.148-7.092 8.356-12.001 15.496-14.9 24.46-2.898 9.012-4.974 10.84-6.28 21.594h302.934c3.834 10.754 6.721 24.127 8.625 36.585 1.93 12.523 2.898 25.901 2.898 38.736 0 32.714-5.162 63.379-15.384 91.237-10.254 27.89-25.67 52.243-46.14 72.783-20.545 20.535-46.032 36.639-76.477 48.205-30.412 11.534-65.519 17.309-105.249 17.309-36.569 0-70.552-5.587-101.932-16.803-31.439-11.216-58.668-27.686-81.741-49.468-23.1-21.841-41.354-48.259-54.835-79.321-13.437-31.095-20.174-66.207-20.174-105.292 0-46.172 7.657-85.774 23.073-118.735 15.384-33.025 35.101-59.98 59.109-80.805 24.084-20.809 51.114-36.225 81.289-46.14 30.117-9.947 60.244-14.889 90.382-14.889 50.006 0 94.872 6.232 134.645 18.717 39.704 12.502 77.552 34.155 113.438 64.9l-80.789 93.296c-12.84-10.91-25.627-19.406-38.472-25.487zM2345.075 497.253c2.242 9.001 6.065 19.201 11.491 27.213 5.474 7.985 12.862 15.781 22.164 21.513 9.275 5.791 21.277 9.049 36.037 9.049 15.357 0 27.718-2 37.010-6.485 9.302-4.527 16.351-10.329 21.169-17.685 4.818-7.388 8.184-19.045 10.103-28.337 1.914-9.313 2.882-20.002 2.882-30.756h-145.2c0.618 5.382 2.059 16.518 4.345 25.487z" horiz-adv-x="2683" data-tags="tgu_guide" />
<glyph unicode="&#x74;" d="M293.868-55.406c-151.23 0-215.396 106.944-215.396 212.504l0.002 367.88h-78.474v141.256h78.474v219.716h185.404v-219.716h131.256v-141.256h-131.256v-356.42c0-42.866 19.952-67.064 64.178-67.064h67.078v-156.898l-101.266-0.002zM892.758 496.574c-21.28 21.318-49.814 32.702-86.952 32.702-37.114 0-64.164-11.382-85.61-32.702-38.368-38.572-42.73-102.774-42.73-179.764 0-77.144 4.362-142.624 42.73-181.148 21.446-21.382 48.496-32.84 85.61-32.84 37.14 0 65.672 11.458 86.952 32.84 38.622 38.524 42.918 104.004 42.918 181.148 0 76.99-4.296 141.192-42.918 179.764zM1036.93 27.292c-45.644-48.422-121.24-91.292-231.124-91.292-109.706 0-183.984 42.87-229.592 91.292-67.028 69.826-84.152 154.030-84.152 289.518 0 134.030 17.124 218.182 84.152 288.088 45.608 48.482 119.886 91.212 229.592 91.212 109.886 0 185.48-42.73 231.124-91.212 67.092-69.906 84.038-154.058 84.038-288.088-0.002-135.488-16.948-219.692-84.038-289.518zM2097.824-55.406v449.282c0 101.24-64.15 135.49-122.672 135.49-56.99 0-124.106-34.25-124.106-131.268v-453.504h-185.392v449.282c0 101.24-64.176 135.49-122.648 135.49-58.42 0-124.092-34.25-124.092-135.49v-449.282h-185.314v743.048h181.080v-68.508c48.458 49.94 116.906 77.132 185.418 77.132 82.668 0 149.708-30.030 196.798-94.156 62.692 65.508 129.76 94.156 222.404 94.156 74.226 0 141.268-24.34 182.576-65.672 59.958-59.892 81.316-129.784 81.316-211.062v-474.936l-185.368-0.002zM2836.218-64c-116.868 0-222.504 12.84-316.66 106.916l121.242 121.242c61.438-61.284 141.268-69.826 198.284-69.826 64.15 0 131.268 21.432 131.268 77.064 0 36.962-20.058 62.744-78.474 68.372l-116.948 11.458c-134.13 12.868-216.8 71.288-216.8 208.17 0 154.2 135.488 236.79 286.604 236.79 115.588 0 212.532-19.938 283.794-87.084l-113.978-115.446c-42.82 38.408-108.454 49.942-172.55 49.942-74.28 0-105.666-34.162-105.666-71.35 0-27.102 11.458-58.5 77.12-64.074l116.916-11.462c146.87-14.296 221.126-92.744 221.126-218.23 0.002-163.904-139.86-242.482-315.278-242.482zM2576.804 960v-176.9l-194.090-146.96v323.86z" horiz-adv-x="3154" />
</font>
</defs>
</svg>
